<svg xmlns="http://www.w3.org/2000/svg" version="1.1" xmlns:xlink="http://www.w3.org/1999/xlink" xmlns:svgjs="http://svgjs.dev/svgjs" width="2000" height="1500" viewBox="0 0 2000 1500"><rect width="2000" height="1500" fill="#b8e6e1"></rect><g transform="matrix(0.75,0,0,0.75,249.090909090909,282.7536437246963)"><svg viewBox="0 0 396 247" data-background-color="#b8e6e1" preserveAspectRatio="xMidYMid meet" height="1247" width="2000" xmlns="http://www.w3.org/2000/svg" xmlns:xlink="http://www.w3.org/1999/xlink"><g id="tight-bounds" transform="matrix(1,0,0,1,0.2400000000000091,-0.09999999999999432)"><svg viewBox="0 0 395.52 247.2" height="247.2" width="395.52"><g><svg></svg></g><g><svg viewBox="0 0 395.52 247.2" height="247.2" width="395.52"><g><path xmlns="http://www.w3.org/2000/svg" d="M55.039 247.2l26.547-45.98h7.559l-22.559 39.074h262.348l-22.559-39.074 7.559 0 26.547 45.98zM197.76 0l26.547 45.98-7.56 0-18.987-32.886-18.987 32.886-7.56 0z" fill="#a170d9" fill-rule="nonzero" stroke="none" stroke-width="1" stroke-linecap="butt" stroke-linejoin="miter" stroke-miterlimit="10" stroke-dasharray="" stroke-dashoffset="0" font-family="none" font-weight="none" font-size="none" text-anchor="none" style="mix-blend-mode: normal" data-fill-palette-color="tertiary"></path></g><g transform="matrix(1,0,0,1,0,68.15719646017699)"><svg viewBox="0 0 395.52 110.88560707964601" height="110.88560707964601" width="395.52"><g><svg viewBox="0 0 395.52 110.88560707964601" height="110.88560707964601" width="395.52"><g><svg viewBox="0 0 395.52 110.88560707964601" height="110.88560707964601" width="395.52"><g><svg viewBox="0 0 395.52 110.88560707964601" height="110.88560707964601" width="395.52"><g id="textblocktransform"><svg viewBox="0 0 395.52 110.88560707964601" height="110.88560707964601" width="395.52" id="textblock"><g><svg viewBox="0 0 395.52 110.88560707964601" height="110.88560707964601" width="395.52"><g transform="matrix(1,0,0,1,0,0)"><svg width="395.52" viewBox="1.5 -39 141.24000549316406 39.599998474121094" height="110.88560707964601" data-palette-color="#a170d9"><path d="M3.3-34.45L23.85-34.45 23.85-30.6 6.8-4.05 23.85-4.05 23.3 0 1.5 0 1.5-3.8 18.7-30.45 3.3-30.45 3.3-34.45ZM30.85-26.35L35.45-26.35 35.45 0 30.85 0 30.85-26.35ZM33.1-39Q34.55-39 35.45-38.1 36.35-37.2 36.35-35.85L36.35-35.85Q36.35-34.5 35.45-33.63 34.55-32.75 33.1-32.75L33.1-32.75Q31.7-32.75 30.8-33.63 29.9-34.5 29.9-35.85L29.9-35.85Q29.9-37.2 30.8-38.1 31.7-39 33.1-39L33.1-39ZM57.25-35.05Q60.35-35.05 62.47-34.25 64.6-33.45 66.8-31.65L66.8-31.65 64.2-28.6Q61.05-31.15 57.55-31.15L57.55-31.15Q53.25-31.15 50.62-27.85 48-24.55 48-17.25L48-17.25Q48-10.15 50.6-6.78 53.2-3.4 57.5-3.4L57.5-3.4Q59.7-3.4 61.35-4.15 63-4.9 64.85-6.25L64.85-6.25 67.2-3.25Q65.6-1.6 63.1-0.5 60.6 0.6 57.35 0.6L57.35 0.6Q53.15 0.6 49.87-1.48 46.6-3.55 44.77-7.58 42.95-11.6 42.95-17.25L42.95-17.25Q42.95-22.9 44.85-26.93 46.75-30.95 50-33 53.25-35.05 57.25-35.05L57.25-35.05ZM85.34-26.95Q88.94-26.95 90.97-24.8 92.99-22.65 92.99-18.9L92.99-18.9 92.99 0 88.39 0 88.39-18.25Q88.39-21.05 87.32-22.2 86.24-23.35 84.19-23.35L84.19-23.35Q82.14-23.35 80.54-22.15 78.94-20.95 77.54-18.75L77.54-18.75 77.54 0 72.94 0 72.94-36.9 77.54-37.4 77.54-22.7Q80.64-26.95 85.34-26.95L85.34-26.95ZM119.99-6.15Q119.99-4.55 120.54-3.78 121.09-3 122.19-2.6L122.19-2.6 121.14 0.6Q119.09 0.35 117.84-0.55 116.59-1.45 115.99-3.35L115.99-3.35Q113.34 0.6 108.14 0.6L108.14 0.6Q104.24 0.6 101.99-1.6 99.74-3.8 99.74-7.35L99.74-7.35Q99.74-11.55 102.77-13.8 105.79-16.05 111.34-16.05L111.34-16.05 115.39-16.05 115.39-18Q115.39-20.8 114.04-22 112.69-23.2 109.89-23.2L109.89-23.2Q106.99-23.2 102.79-21.8L102.79-21.8 101.64-25.15Q106.54-26.95 110.74-26.95L110.74-26.95Q115.39-26.95 117.69-24.68 119.99-22.4 119.99-18.2L119.99-18.2 119.99-6.15ZM109.19-2.85Q113.14-2.85 115.39-6.95L115.39-6.95 115.39-13 111.94-13Q104.64-13 104.64-7.6L104.64-7.6Q104.64-5.25 105.79-4.05 106.94-2.85 109.19-2.85L109.19-2.85ZM140.99-4.25L142.74-1.2Q140.14 0.6 136.84 0.6L136.84 0.6Q133.49 0.6 131.61-1.33 129.74-3.25 129.74-6.9L129.74-6.9 129.74-22.8 125.14-22.8 125.14-26.35 129.74-26.35 129.74-32.3 134.34-32.85 134.34-26.35 140.59-26.35 140.09-22.8 134.34-22.8 134.34-7.1Q134.34-5.05 135.06-4.13 135.79-3.2 137.49-3.2L137.49-3.2Q139.04-3.2 140.99-4.25L140.99-4.25Z" opacity="1" transform="matrix(1,0,0,1,0,0)" fill="#a170d9" class="wordmark-text-0" data-fill-palette-color="primary" id="text-0"></path></svg></g></svg></g></svg></g></svg></g><g></g></svg></g></svg></g></svg></g></svg></g><defs></defs></svg><rect width="395.52" height="247.2" fill="none" stroke="none" visibility="hidden"></rect></g></svg></g></svg>